<!DOCTYPE svg PUBLIC "-//W3C//DTD SVG 1.1//EN" "http://www.w3.org/Graphics/SVG/1.1/DTD/svg11.dtd">
<!-- Uploaded to: SVG Repo, www.svgrepo.com, Transformed by: SVG Repo Mixer Tools -->
<svg fill="#7272ff" version="1.1" id="Capa_1" xmlns="http://www.w3.org/2000/svg" xmlns:xlink="http://www.w3.org/1999/xlink" width="800px" height="800px" viewBox="-46.87 -46.87 562.44 562.44" xml:space="preserve" transform="rotate(0)">
<g id="SVGRepo_bgCarrier" stroke-width="0"/>
<g id="SVGRepo_tracerCarrier" stroke-linecap="round" stroke-linejoin="round" stroke="#CCCCCC" stroke-width="1.874792"/>
<g id="SVGRepo_iconCarrier"> <g> <path d="M414.859,244.427c8.664-1.909,17.223-4.887,25.479-9.145c10.943-5.644,20.394-13.023,28.36-21.523 c-42.747,5.789-86.402-15.251-107.293-55.785c-20.894-40.537-12.719-88.299,16.805-119.76 c-11.551,1.557-23.033,4.969-33.986,10.616c-29.387,15.152-48.494,42.28-54.61,72.34c-24.79-20.414-56.509-32.712-91.053-32.712 c-79.096,0-143.451,64.348-143.451,143.457c0,0.47,0.005,0.936,0.015,1.406C21.393,251.525,0,286.933,0,325.592 c0,57.84,47.046,104.893,104.885,104.893h243.647c57.828,0,104.888-47.053,104.888-104.893 C453.416,292.902,438.373,263.683,414.859,244.427z M348.533,408.066H104.879c-45.471,0-82.471-37.002-82.471-82.475 c0-32.459,19.193-62.002,48.89-75.275l7.095-3.171l-0.604-9.691c-0.126-1.832-0.267-3.668-0.267-5.54 c0-66.742,54.296-121.043,121.039-121.043c66.744,0,121.053,54.295,121.037,121.117c-0.032,0.52-0.065,1.029-0.074,1.547 l-0.126,13.687l13.442-2.577c5.309-1.023,10.594-1.526,15.699-1.526c45.478,0,82.474,36.996,82.474,82.474 C431.012,371.064,394.005,408.066,348.533,408.066z"/> </g> </g>
</svg>